inDegrees=no
num_controls=7
num_derivatives=13
num_iterations=135
num_multipliers=7
num_parameters=0
num_slacks=7
num_states=26
objective=0.542983
objective_accelerations=0.064027
objective_balance=0.003426
objective_effort=0.047717
objective_height=0.418638
objective_ligament=0.009175
solver_duration=1449.382489
status=Solve_Succeeded
success=true
DataType=double
version=3
OpenSimVersion=4.5
endheader
time	/jointset/ground_pelvis/pelvis_tilt/value	/jointset/ground_pelvis/pelvis_tx/value	/jointset/ground_pelvis/pelvis_ty/value	/jointset/hip_r/hip_flexion_r/value	/jointset/hip_r/hip_adduction_r/value	/jointset/hip_r/hip_rotation_r/value	/jointset/back/lumbar_extension/value	/jointset/patellofemoral_r/patellar_flexion_r/value	/jointset/knee_r/knee_flexion_r/value	/jointset/knee_r/knee_adduction_r/value	/jointset/knee_r/knee_rotation_r/value	/jointset/ankle_r/ankle_angle_r/value	/jointset/subtalar_r/subtalar_angle_r/value	/jointset/ground_pelvis/pelvis_tilt/speed	/jointset/ground_pelvis/pelvis_tx/speed	/jointset/ground_pelvis/pelvis_ty/speed	/jointset/hip_r/hip_flexion_r/speed	/jointset/hip_r/hip_adduction_r/speed	/jointset/hip_r/hip_rotation_r/speed	/jointset/back/lumbar_extension/speed	/jointset/patellofemoral_r/patellar_flexion_r/speed	/jointset/knee_r/knee_flexion_r/speed	/jointset/knee_r/knee_adduction_r/speed	/jointset/knee_r/knee_rotation_r/speed	/jointset/ankle_r/ankle_angle_r/speed	/jointset/subtalar_r/subtalar_angle_r/speed	/forceset/tau_hip_flexion_r	/forceset/tau_hip_adduction_r	/forceset/tau_hip_rotation_r	/forceset/tau_knee_flexion_r	/forceset/tau_ankle_angle_r	/forceset/tau_subtalar_angle_r	/forceset/tau_lumbar_extension	lambda_cid13_p0	lambda_cid14_p0	lambda_cid14_p1	lambda_cid14_p2	lambda_cid14_p3	lambda_cid14_p4	lambda_cid14_p5	/jointset/ground_pelvis/pelvis_tilt/accel	/jointset/ground_pelvis/pelvis_tx/accel	/jointset/ground_pelvis/pelvis_ty/accel	/jointset/hip_r/hip_flexion_r/accel	/jointset/hip_r/hip_adduction_r/accel	/jointset/hip_r/hip_rotation_r/accel	/jointset/back/lumbar_extension/accel	/jointset/patellofemoral_r/patellar_flexion_r/accel	/jointset/knee_r/knee_flexion_r/accel	/jointset/knee_r/knee_adduction_r/accel	/jointset/knee_r/knee_rotation_r/accel	/jointset/ankle_r/ankle_angle_r/accel	/jointset/subtalar_r/subtalar_angle_r/accel	gamma_cid13_p0	gamma_cid14_p0	gamma_cid14_p1	gamma_cid14_p2	gamma_cid14_p3	gamma_cid14_p4	gamma_cid14_p5
0	-0.00637281512882136	0.09620107567345627	0.9427230440851753	0.1762555222360518	-0.2321914078581288	-0.2606073104090592	-0.038598046466844	0.07317863873450982	0.07317863873451017	0.1745314456954285	0.1735446959584931	0.03247278518263602	-0.00350755797777988	0	0	0	0	0	0	0	0	0	0	0	0	0	0.2363999975566921	-0.1668945816355877	-0.04439294209629739	-0.4091277183947468	0.3937643902870962	-0.1409412389781849	-0.133203851087906	-39.04777536227872	76.79175696414134	-38.01712029175571	-4.613600157685778	-26.46572017129423	-675.8559886640737	61.184219590787	-2.766157592453781	-1.517791908819579	-0.7659073398153945	11.52707428759176	0.3327091311316628	2.84518473311811	-5.41775197412521	11.3671438269539	11.36714382695421	-3.717372304737144	0.3430971909295362	3.638895502254921	1.169338280447274	1.398452543027648e-07	7.209644962742937e-08	-9.454558712062646e-07	3.202739681201289e-07	5.595134027968738e-08	2.068031105326298e-08	-5.046800167817073e-07
0.01	-0.006502333448370977	0.09612592303450269	0.9426862231176049	0.1768136674061679	-0.2321732723855274	-0.2604552623698266	-0.03887297583904883	0.07373087605757066	0.07373087605757238	0.1743457293134631	0.173547472208002	0.03264981567557178	-0.003448760680428819	-0.02577137499897549	-0.01499420506317538	-0.007350408774007881	0.1111342853942521	0.003566851533834598	0.03028092785281486	-0.054632054167037	0.109943146413672	0.1099431464136832	-0.03686870934937257	0.0005278444516786586	0.03518883531082401	0.01164746996156275	0.2292912355755622	-0.174895180428458	-0.04249566532523246	-0.3991645084418914	0.3772421679265412	-0.1277699689759133	-0.1276079326501085	-39.06626404472254	71.97121774562929	-33.20190391688063	-5.311574419259053	-23.60699215555819	-676.1563027511401	69.94659072625329	-2.462776081671522	-1.484775205634987	-0.7175357991217368	10.83240095218074	0.3595469637178335	3.100320973107824	-5.43285909694945	10.7322243496176	10.73222434961802	-3.630548642471027	-0.09639274739339262	3.426310761410849	1.145541071911308	1.959027645781489e-07	8.671284566620226e-08	-1.301187984188569e-06	3.119630724834015e-07	9.802346084745213e-08	-2.124182772822516e-07	-5.877819588667319e-07
0.02	-0.0068855952435204	0.09590192026480369	0.9425763124317087	0.1784683144875964	-0.2321212936377466	-0.2600042502197196	-0.03968361114471493	0.07536740970498536	0.07536740970498529	0.1737995401595146	0.1735547227380749	0.03317222116479826	-0.003276870739882021	-0.05074869512003991	-0.02977002614908566	-0.01461794366514404	0.2193003822620545	0.006768655036007429	0.05979282217541732	-0.1071411866923368	0.2168592648690946	0.2168592648690729	-0.07209455439609545	0.0008948561161406759	0.06907499925823661	0.02261852863914755	0.2221824735944546	-0.1828957792213251	-0.0405983885542237	-0.3892012984890121	0.3607199455659932	-0.1145986989736357	-0.1220120142122986	-39.12082993767655	67.253340178184	-28.39426247482637	-5.979152618435629	-20.93224878576062	-674.853211148282	78.41568439724806	-2.607346616871586	-1.474115113366545	-0.7493325632410501	10.93343658230185	0.2596995247993124	2.69137802707563	-4.99316764577778	10.76173823530404	10.76173823529551	-3.388799444207212	0.3109306334862055	3.378361229572652	1.034056023651689	2.519602748535331e-07	1.013292417049752e-07	-1.656920097170873e-06	3.036521768466741e-07	1.400955814152169e-07	-4.455168656177663e-07	-6.708839009517565e-07
0.03	-0.007515339512606098	0.09553139355368261	0.9423937515200694	0.1811908264785916	-0.23203917620189	-0.2592647964619589	-0.0410080616670418	0.07805928078070483	0.07805928078070463	0.1729096266773934	0.1735674993129022	0.03402745319407408	-0.002998529108239618	-0.07507131596207464	-0.04428205367825171	-0.02190725032249784	0.3247059228137992	0.009605305732658911	0.08792904032496252	-0.1573950560920621	0.3210372871188716	0.3210372871188539	-0.1056110808863188	0.001637216697210577	0.1017834011018968	0.03295928488987156	0.2148778115614637	-0.1837986854413895	-0.03865190492175907	-0.3806735292599436	0.3476417448057912	-0.1078084175625889	-0.1162877326052094	-39.20986755473319	63.39444725701083	-26.19516448024969	-6.244931157915087	-18.80682084586554	-673.7255620735673	81.55047609494657	-2.325367000034423	-1.431729024024949	-0.7207715111372649	10.26971575335254	0.2880242417988447	2.849500389643502	-4.988417334964917	10.17413412793068	10.17413412793627	-3.291751402824111	-0.04748177550890458	3.188928940614	1.020280763589379	2.807755360459448e-07	1.079793192478212e-07	-1.831208678040258e-06	3.426268674013414e-07	1.633550960430046e-07	-5.854272418025878e-07	-7.568616562827258e-07
0.04	-0.008384439426544224	0.09501735007700322	0.9421378891830257	0.1849525144674525	-0.2319302169791264	-0.2582490291865508	-0.04282443503294459	0.08177859206054136	0.08177859206054157	0.1716928135000871	0.1735870253843624	0.03520413909755728	-0.002619540846528653	-0.09861982409071142	-0.05847337926074177	-0.02927822874602193	0.4271355818352172	0.01213701241734321	0.1150555257044893	-0.2055257554075903	0.422347305693295	0.4223473056933094	-0.1374744934323102	0.002244755441227917	0.133365774099609	0.04274785465286033	0.2075731495284629	-0.1847015916614591	-0.03670542128926806	-0.3721457600308878	0.3345635440455839	-0.1010181361515491	-0.1105634509981234	-39.33125905124011	59.62859525796423	-23.99920908982962	-6.488007953245508	-16.84978284272457	-671.1533883082905	84.42126425235479	-2.452524074192018	-1.409974724031336	-0.7656669164751091	10.33826027623654	0.1987107224058802	2.489431473071949	-4.568533628938368	10.18813750023332	10.18813750023039	-3.058176655360815	0.2839662660756909	3.15315546038305	0.9236187261046491	3.090291013809756e-07	1.144651428010605e-07	-2.001756155154738e-06	3.825765184960374e-07	1.862267218885248e-07	-7.234162115513125e-07	-8.428987067321681e-07
